# xmcd
# Track frame offsets:
# 150
# 15442
# 28517
# 43485
# 59155
# 73827
# 87437
# 101067
# 111990
# 126712
# 141885
# 154010
#
# Disc length: 2216 seconds
# Revision: 0
# Processed by: cddbd v1.4PL0 Copyright (c) Steve Scherf et al.
# Submitted via: VisiTrax 2.9.5.181 - For more info visit www.synapsa.com
#
DISCID=b708a60c
DTITLE=Inger Nordstrom 'n' her Rhinestone Band - Hey, conductor
DYEAR=1997
DGENRE=Country
TTITLE0=Hey conductor
TTITLE1=Drowning in love
TTITLE2=The heart that Jack broke
TTITLE3=I stopped lovin' you today
TTITLE4=Next best thing
TTITLE5=Showing all the signs
TTITLE6=Sally dear
TTITLE7=This ain't it
TTITLE8=Cry with a smile
TTITLE9=Steady and strong
TTITLE10=before he kissed me
TTITLE11=The only girl
EXTD=
EXTT0=
EXTT1=
EXTT2=
EXTT3=
EXTT4=
EXTT5=
EXTT6=
EXTT7=
EXTT8=
EXTT9=
EXTT10=
EXTT11=
PLAYORDER=
